<?xml version="1.0" standalone="no"?><!DOCTYPE svg PUBLIC "-//W3C//DTD SVG 1.1//EN" "http://www.w3.org/Graphics/SVG/1.1/DTD/svg11.dtd"><svg t="1713333021131" class="icon" viewBox="0 0 1260 1024" version="1.1" xmlns="http://www.w3.org/2000/svg" p-id="8382" xmlns:xlink="http://www.w3.org/1999/xlink" width="246.09375" height="200"><path d="M779.963381 819.734503H779.779595a70.889054 70.889054 0 0 1-0.236297-141.778108 190.429003 190.429003 0 0 0 66.189372-26.780309 160.839387 160.839387 0 0 1 72.359346-43.636151 107.278768 107.278768 0 0 1-11.683567 34.866912 107.278768 107.278768 0 0 1-22.763262 28.880726 237.347055 237.347055 0 0 0-32.976538 77.452856 70.889054 70.889054 0 0 1-70.757778 70.889054z" fill="#FFCD00" p-id="8383"></path><path d="M196.914039 945.864509a38.857704 38.857704 0 0 1-24.496106-8.690473 39.382808 39.382808 0 0 1-13.600197-40.249229l31.506247-126.917662A410.998982 410.998982 0 0 1 0 433.572945a372.246299 372.246299 0 0 1 10.502082-87.377323 384.559991 384.559991 0 0 1 29.852168-81.391136 417.772825 417.772825 0 0 1 47.25937-73.514574 461.88157 461.88157 0 0 1 62.408623-64.272743A507.434351 507.434351 0 0 1 225.794765 74.086676a547.342263 547.342263 0 0 1 87.06226-39.907912 579.478634 579.478634 0 0 1 96.146562-25.336273A609.330803 609.330803 0 0 1 610.407266 7.923558a580.738884 580.738884 0 0 1 91.893218 22.894539 550.965481 550.965481 0 0 1 83.78036 36.310949A514.33947 514.33947 0 0 1 859.962991 115.5699a472.094845 472.094845 0 0 1 62.356113 58.680383A429.351371 429.351371 0 0 1 971.442593 241.752416a393.828078 393.828078 0 0 1 33.89547 75.063632 374.189185 374.189185 0 0 1 17.039628 81.023563 345.938584 345.938584 0 0 0-37.229881-3.675729 348.564104 348.564104 0 0 0-41.667011 4.043302 335.383991 335.383991 0 0 0-139.546415-226.818718A489.633322 489.633322 0 0 0 512.239054 78.812612C273.237921 78.812612 78.765616 237.971666 78.765616 433.572945a331.34069 331.34069 0 0 0 154.90571 269.194619 439.617156 439.617156 0 0 0 47.25937 30.377273l-19.21881 76.743965 6.695077 3.203135c4.568406 2.205437 9.268087 4.48964 14.046535 6.51129l97.144259-48.545874c12.628754 3.281901 26.045164 5.539848 39.04149 7.745286h0.210042l4.647171 0.787656 2.205437 0.393828c8.585452 1.522802 17.459711 3.124369 26.412737 4.174577a499.321493 499.321493 0 0 0 181.160916-10.502082 350.454479 350.454479 0 0 0 14.282831 77.4266 599.773908 599.773908 0 0 1-135.319327 15.753124 589.324336 589.324336 0 0 1-121.535345-13.390155l-176.119917 87.954937a39.04149 39.04149 0 0 1-17.669753 4.463385z" fill="#0282F0" p-id="8384"></path><path d="M984.150112 1024a70.889054 70.889054 0 0 1-70.889054-70.889054 191.452956 191.452956 0 0 0-26.255205-66.504435 161.443257 161.443257 0 0 1-43.006026-72.858194 106.648644 106.648644 0 0 1 34.683126 12.103649 106.622388 106.622388 0 0 1 28.539408 23.130836v-0.420083a236.480633 236.480633 0 0 0 76.901496 33.606662 70.889054 70.889054 0 1 1 0 141.778109z" fill="#FC6401" p-id="8385"></path><path d="M1051.100885 888.575652a106.333581 106.333581 0 0 1 11.657311-34.945679 107.646341 107.646341 0 0 1 22.763263-28.880725 237.242034 237.242034 0 0 0 32.924028-77.400345 70.889054 70.889054 0 0 1 70.705267-71.072841h0.210042a70.889054 70.889054 0 0 1 27.830518 136.159494 70.442716 70.442716 0 0 1-27.567966 5.671125 190.455259 190.455259 0 0 0-66.189372 26.780309 160.865642 160.865642 0 0 1-72.333091 43.688662z" fill="#0282F0" p-id="8386"></path><path d="M1123.407721 683.128671a107.068727 107.068727 0 0 1-63.327555-34.919423h-0.210042a236.71693 236.71693 0 0 0-77.137793-33.344111 70.889054 70.889054 0 0 1-27.567965-136.212004 70.889054 70.889054 0 0 1 98.457019 65.32295 192.555675 192.555675 0 0 0 26.517757 66.425669 161.574533 161.574533 0 0 1 43.268579 72.726919z" fill="#2CBD00" p-id="8387"></path></svg>